<?xml version="1.0" encoding="UTF-8"?>
<!DOCTYPE svg PUBLIC "-//W3C//DTD SVG 1.1//EN" "http://www.w3.org/Graphics/SVG/1.1/DTD/svg11.dtd">
<!-- Creator: CorelDRAW 2019 (64-Bit) -->
<svg xmlns="http://www.w3.org/2000/svg" xml:space="preserve" width="574.446mm" height="484.479mm" version="1.1" style="shape-rendering:geometricPrecision; text-rendering:geometricPrecision; image-rendering:optimizeQuality; fill-rule:evenodd; clip-rule:evenodd"
viewBox="0 0 4452.81 3755.43"
 xmlns:xlink="http://www.w3.org/1999/xlink"
 xmlns:xodm="http://www.corel.com/coreldraw/odm/2003">
 <defs>
  <style type="text/css">
   <![CDATA[
    .fil0 {fill:#990202}
    .fil2 {fill:black;fill-rule:nonzero}
    .fil1 {fill:#990202;fill-rule:nonzero}
   ]]>
  </style>
 </defs>
 <g id="Layer_x0020_1">
  <metadata id="CorelCorpID_0Corel-Layer"/>
  <path class="fil0" d="M535.6 0l3381.6 0c294.59,0 535.61,241.01 535.61,535.6l0 1412.03c0,294.58 -241.02,535.6 -535.61,535.6l-3381.6 0c-294.59,0 -535.6,-241.02 -535.6,-535.6l0 -1412.03c0,-294.59 241.01,-535.6 535.6,-535.6zm2123.03 1092.56l0 -712.99 -326.83 0 0 735.19c0,95.41 2.35,165.89 20.3,261.12 77.98,413.25 317.67,652.01 719.08,716.23 81.81,13.09 153.62,15.76 235.56,15.76l767.21 0 0 -327.34 -720.13 0c-79.88,0 -153.31,2.54 -232.59,-11.47 -225.58,-39.91 -370.65,-174.77 -435.21,-404.55 -29.02,-103.32 -27.4,-167.3 -27.4,-271.94zm-539.03 -709.51l-881.48 0c-473.38,0 -860.68,387.31 -860.68,860.68l0 0c0,473.38 387.31,860.68 860.68,860.68l881.48 0 0 -324.59 -881.48 0c-294.21,0 -536.08,-241.88 -536.08,-536.09 0,-294.21 241.87,-536.08 536.08,-536.08l881.48 0 0 -324.6zm-901.59 699.1l901.6 0 0 316.25 -901.6 0 0 -316.25z"/>
  <g id="_1474982698192">
   <path class="fil1" d="M464.05 3291.39l-378.29 0c9.42,38.33 29.42,69.77 60.02,94.32 30.6,24.55 66.08,36.82 106.43,36.82 47.08,0 87.43,-16.81 121.05,-50.44 8.07,-7.4 17.65,-11.1 28.75,-11.1 11.1,0 20.68,3.7 28.75,11.1 7.4,8.07 11.1,17.65 11.1,28.75 0,11.1 -3.7,20.68 -11.1,28.75 -51.11,49.09 -110.63,73.64 -178.55,73.64 -69.94,0 -129.46,-24.55 -178.55,-73.64 -49.09,-49.09 -73.64,-108.61 -73.64,-178.55 0,-69.94 24.55,-129.46 73.64,-178.55 49.09,-49.09 108.61,-73.64 178.55,-73.64 69.94,0 129.46,24.55 178.55,73.64 49.09,49.09 73.64,108.61 73.64,178.55 0,11.43 -3.87,21.02 -11.6,28.75 -7.73,7.73 -17.32,11.6 -28.75,11.6zm-378.29 -80.7l332.9 0c-9.41,-38.33 -29.59,-69.77 -60.53,-94.32 -30.94,-24.55 -66.24,-36.82 -105.92,-36.82 -40.35,0 -75.83,12.27 -106.43,36.82 -30.6,24.55 -50.61,55.99 -60.02,94.32zm937.15 252.19l0 -27.24c-47.08,45.06 -104.24,67.59 -171.49,67.59 -69.94,0 -129.46,-24.55 -178.55,-73.64 -49.09,-49.09 -73.64,-108.61 -73.64,-178.55 0,-69.94 24.55,-129.46 73.64,-178.55 49.09,-49.09 108.61,-73.64 178.55,-73.64 69.94,0 129.46,24.55 178.55,73.64 49.09,49.09 73.64,108.61 73.64,178.55l0 211.84c0,11.43 -3.87,21.02 -11.6,28.75 -7.73,7.73 -17.32,11.6 -28.75,11.6 -11.43,0 -21.02,-3.87 -28.75,-11.6 -7.73,-7.73 -11.6,-17.32 -11.6,-28.75zm-292.55 -90.79c33.63,33.63 73.98,50.44 121.05,50.44 47.08,0 87.43,-16.81 121.05,-50.44 33.63,-33.63 50.44,-73.98 50.44,-121.05 0,-47.08 -16.81,-87.43 -50.44,-121.05 -33.63,-33.63 -73.98,-50.44 -121.05,-50.44 -47.08,0 -87.43,16.81 -121.05,50.44 -33.63,33.63 -50.44,73.98 -50.44,121.05 0,47.08 16.81,87.43 50.44,121.05zm745.49 131.14l-216.89 0c-11.43,0 -21.02,-3.87 -28.75,-11.6 -7.73,-7.73 -11.6,-17.32 -11.6,-28.75 0,-11.43 3.87,-21.02 11.6,-28.75 7.73,-7.73 17.32,-11.6 28.75,-11.6l216.89 0c18.16,0 33.63,-6.39 46.4,-19.17 12.78,-12.78 19.17,-28.25 19.17,-46.4 0,-18.16 -6.39,-33.63 -19.17,-46.4 -12.78,-12.78 -28.25,-19.17 -46.4,-19.17l-110.97 0c-40.35,0 -74.82,-14.29 -103.4,-42.87 -28.58,-28.58 -42.87,-63.05 -42.87,-103.4 0,-40.35 14.29,-74.82 42.87,-103.4 28.58,-28.58 63.05,-42.87 103.4,-42.87l157.37 0c11.43,0 21.02,3.87 28.75,11.6 7.73,7.73 11.6,17.32 11.6,28.75 0,11.43 -3.87,21.02 -11.6,28.75 -7.73,7.73 -17.32,11.6 -28.75,11.6l-157.37 0c-18.16,0 -33.63,6.39 -46.4,19.17 -12.78,12.78 -19.17,28.25 -19.17,46.4 0,18.16 6.39,33.63 19.17,46.4 12.78,12.78 28.25,19.17 46.4,19.17l110.97 0c40.35,0 74.82,14.29 103.4,42.87 28.58,28.58 42.87,63.05 42.87,103.4 0,40.35 -14.29,74.82 -42.87,103.4 -28.58,28.58 -63.05,42.87 -103.4,42.87zm449.91 0l-203.77 -446.89c-5.38,-10.09 -6.05,-20.34 -2.02,-30.77 4.04,-10.42 11.1,-17.99 21.18,-22.7 10.09,-5.38 20.34,-6.05 30.77,-2.02 10.42,4.04 17.99,11.1 22.7,21.18l175.53 384.34 175.53 -384.34c4.71,-10.09 12.27,-17.15 22.7,-21.18 10.42,-4.03 20.68,-3.36 30.77,2.02 10.09,4.71 17.15,12.27 21.18,22.7 4.04,10.42 3.36,20.68 -2.02,30.77l-252.19 552.81c-20.85,44.39 -51.62,79.86 -92.3,106.43 -40.69,26.56 -86.25,39.85 -136.69,39.85 -11.43,0 -21.02,-3.87 -28.75,-11.6 -7.73,-7.73 -11.6,-17.32 -11.6,-28.75 0,-11.43 3.87,-21.02 11.6,-28.75 7.73,-7.73 17.32,-11.6 28.75,-11.6 34.3,0 65.57,-9.08 93.82,-27.24 28.25,-18.16 49.09,-42.37 62.54,-72.63l32.28 -71.62z"/>
   <path class="fil2" d="M2429.15 2787l0 675.88c0,11.43 -3.87,21.02 -11.6,28.75 -7.73,7.73 -17.32,11.6 -28.75,11.6 -11.43,0 -21.02,-3.87 -28.75,-11.6 -7.73,-7.73 -11.6,-17.32 -11.6,-28.75l0 -675.88c0,-11.43 3.87,-21.02 11.6,-28.75 7.73,-7.73 17.32,-11.6 28.75,-11.6 11.43,0 21.02,3.87 28.75,11.6 7.73,7.73 11.6,17.32 11.6,28.75zm568.95 504.39l-378.29 0c9.42,38.33 29.42,69.77 60.02,94.32 30.6,24.55 66.08,36.82 106.43,36.82 47.08,0 87.43,-16.81 121.05,-50.44 8.07,-7.4 17.65,-11.1 28.75,-11.1 11.1,0 20.68,3.7 28.75,11.1 7.4,8.07 11.1,17.65 11.1,28.75 0,11.1 -3.7,20.68 -11.1,28.75 -51.11,49.09 -110.63,73.64 -178.55,73.64 -69.94,0 -129.46,-24.55 -178.55,-73.64 -49.09,-49.09 -73.64,-108.61 -73.64,-178.55 0,-69.94 24.55,-129.46 73.64,-178.55 49.09,-49.09 108.61,-73.64 178.55,-73.64 69.94,0 129.46,24.55 178.55,73.64 49.09,49.09 73.64,108.61 73.64,178.55 0,11.43 -3.87,21.02 -11.6,28.75 -7.73,7.73 -17.32,11.6 -28.75,11.6zm-378.29 -80.7l332.9 0c-9.41,-38.33 -29.59,-69.77 -60.53,-94.32 -30.94,-24.55 -66.24,-36.82 -105.92,-36.82 -40.35,0 -75.83,12.27 -106.43,36.82 -30.6,24.55 -50.61,55.99 -60.02,94.32zm937.15 292.55l0 -67.59c-47.08,45.06 -104.24,67.59 -171.49,67.59 -69.94,0 -129.46,-24.55 -178.55,-73.64 -49.09,-49.09 -73.64,-108.61 -73.64,-178.55 0,-69.94 24.55,-129.46 73.64,-178.55 49.09,-49.09 108.61,-73.64 178.55,-73.64 67.25,0 124.42,22.53 171.49,67.59l0 -27.24c0,-11.43 3.87,-21.02 11.6,-28.75 7.73,-7.73 17.32,-11.6 28.75,-11.6 11.43,0 21.02,3.87 28.75,11.6 7.73,7.73 11.6,17.32 11.6,28.75l0 464.04c0,69.94 -24.55,129.46 -73.64,178.55 -49.09,49.09 -108.61,73.64 -178.55,73.64 -69.94,0 -129.46,-24.55 -178.55,-73.64 -7.4,-8.07 -11.1,-17.65 -11.1,-28.75 0,-11.1 3.7,-20.68 11.1,-28.75 8.07,-7.4 17.65,-11.1 28.75,-11.1 11.1,0 20.68,3.7 28.75,11.1 33.63,33.63 73.98,50.44 121.05,50.44 47.08,0 87.43,-16.81 121.05,-50.44 33.63,-33.63 50.44,-73.98 50.44,-121.05zm-292.55 -131.14c33.63,33.63 73.98,50.44 121.05,50.44 47.08,0 87.43,-16.81 121.05,-50.44 33.63,-33.63 50.44,-73.98 50.44,-121.05 0,-47.08 -16.81,-87.43 -50.44,-121.05 -33.63,-33.63 -73.98,-50.44 -121.05,-50.44 -47.08,0 -87.43,16.81 -121.05,50.44 -33.63,33.63 -50.44,73.98 -50.44,121.05 0,47.08 16.81,87.43 50.44,121.05zm901.85 90.79l0 -27.24c-47.08,45.06 -104.24,67.59 -171.49,67.59 -69.94,0 -129.46,-24.55 -178.55,-73.64 -49.09,-49.09 -73.64,-108.61 -73.64,-178.55 0,-69.94 24.55,-129.46 73.64,-178.55 49.09,-49.09 108.61,-73.64 178.55,-73.64 69.94,0 129.46,24.55 178.55,73.64 49.09,49.09 73.64,108.61 73.64,178.55l0 211.84c0,11.43 -3.87,21.02 -11.6,28.75 -7.73,7.73 -17.32,11.6 -28.75,11.6 -11.43,0 -21.02,-3.87 -28.75,-11.6 -7.73,-7.73 -11.6,-17.32 -11.6,-28.75zm-292.55 -90.79c33.63,33.63 73.98,50.44 121.05,50.44 47.08,0 87.43,-16.81 121.05,-50.44 33.63,-33.63 50.44,-73.98 50.44,-121.05 0,-47.08 -16.81,-87.43 -50.44,-121.05 -33.63,-33.63 -73.98,-50.44 -121.05,-50.44 -47.08,0 -87.43,16.81 -121.05,50.44 -33.63,33.63 -50.44,73.98 -50.44,121.05 0,47.08 16.81,87.43 50.44,121.05zm579.04 -585.09l0 675.88c0,11.43 -3.87,21.02 -11.6,28.75 -7.73,7.73 -17.32,11.6 -28.75,11.6 -11.43,0 -21.02,-3.87 -28.75,-11.6 -7.73,-7.73 -11.6,-17.32 -11.6,-28.75l0 -675.88c0,-11.43 3.87,-21.02 11.6,-28.75 7.73,-7.73 17.32,-11.6 28.75,-11.6 11.43,0 21.02,3.87 28.75,11.6 7.73,7.73 11.6,17.32 11.6,28.75z"/>
  </g>
 </g>
</svg>
