<?xml version="1.0" encoding="UTF-8"?>
<!DOCTYPE svg PUBLIC "-//W3C//DTD SVG 1.1//EN" "http://www.w3.org/Graphics/SVG/1.1/DTD/svg11.dtd">
<!-- Creator: CorelDRAW 2019 (64-Bit) -->
<svg xmlns="http://www.w3.org/2000/svg" xml:space="preserve" width="232.152mm" height="74.0942mm" version="1.1" style="shape-rendering:geometricPrecision; text-rendering:geometricPrecision; image-rendering:optimizeQuality; fill-rule:evenodd; clip-rule:evenodd"
viewBox="0 0 545.02 173.95"
 xmlns:xlink="http://www.w3.org/1999/xlink"
 xmlns:xodm="http://www.corel.com/coreldraw/odm/2003">
 <defs>
  <style type="text/css">
   <![CDATA[
    .fil0 {fill:#FF6038}
   ]]>
  </style>
 </defs>
 <g id="Layer_x0020_1">
  <metadata id="CorelCorpID_0Corel-Layer"/>
  <g id="_1510396429488">
   <path class="fil0" d="M48.73 126.08c2.82,1.09 6.17,3.68 9.44,5.27 11.84,5.75 26.45,4.44 31.4,-3.49 10.59,-16.99 -14.63,-22.75 -24.86,-27 -31,-12.88 -16.11,-42.98 10.55,-40.64 6.98,0.61 16.72,3.68 20.78,7.9l-3.42 5.19c-3.33,-0.63 -6.89,-3.3 -10.83,-4.47 -23.65,-7.01 -39.23,15.44 -11.7,25.77 7.39,2.77 13.15,4.28 19.5,8.7 5.65,3.93 10.97,8.79 9.8,19.34 -3.15,28.42 -44.76,21.61 -54.38,9.09 0.82,-2.28 2.07,-4.11 3.73,-5.66zm-1.9 -86.3c-0.48,-15.4 11.13,-30.03 25.92,-30.04 15.13,-0.01 25.54,14.54 25.91,29.94l-51.83 0.1zm-10 -0.27c-33.52,2.35 -37.36,-5.24 -36.79,7.72l4.55 98.24c0.52,9.38 2.2,16.04 10.6,18.19 4.65,1.19 111,1.1 115.42,-0.59 8.45,-3.23 9.38,-9.51 9.9,-19.83l4.15 -83.78c1.73,-29.74 4.47,-16.71 -36.01,-19.95 -1.61,-12.09 -4.43,-20.64 -10.62,-27.49 -22.91,-25.34 -59.47,-7.96 -61.21,27.49z"/>
   <path class="fil0" d="M390.3 101.41c10.21,-2.13 19.51,5.31 21.07,13.9 4.33,23.83 -30.96,29.18 -35.11,7.01 -2,-10.66 5.43,-19.11 14.04,-20.91zm-14.49 38.32c5.02,2.74 7.15,4.9 14.23,5.94 6.2,0.91 12.11,-0.7 16.63,-3 31.88,-16.21 6.99,-68.92 -30.8,-44.63l-0.04 -6.24 -9.38 -0.13 0.35 82.27 9.03 -0.24 -0.03 -33.97z"/>
   <path class="fil0" d="M175.55 135.05c3.91,4.55 12.33,8.16 19.65,9.95 15.59,3.82 35.1,-1.09 38.2,-19.14 5.2,-30.19 -42.15,-26.07 -45.68,-42.21 -2.05,-9.36 6.67,-14.73 14.34,-15.33 11.39,-0.89 18.06,5.15 22.24,6.12 2.36,-2.09 3.88,-3.94 4.94,-7.3 -41.81,-26.87 -72.19,19.53 -35.64,34.86 6.43,2.7 16.5,5.06 21.54,8.19 17.87,11.12 6.07,29.1 -14.57,26.31 -10.26,-1.39 -16.14,-8.11 -21.24,-8.88 -1.37,2.56 -3.46,4.35 -3.79,7.42z"/>
   <path class="fil0" d="M252.44 145.81c0.54,-17.43 -5.07,-43.76 15.78,-44.16 20.93,-0.4 16.24,27.44 15.97,44.05l9.73 0.41c0.15,-19.96 2.9,-40.73 -11.09,-49.7 -11.26,-7.21 -20.47,-4.4 -30.41,0.8 0.22,-6.44 0.92,-33.41 -0.46,-38.06l-9.12 0.19 -0.04 86.36 9.64 0.09z"/>
   <path class="fil0" d="M503.14 112.13c1.77,-2.96 1.72,-4.66 5.29,-7.69 2.76,-2.35 6,-3.69 10.73,-3.6 7.42,0.15 14.19,5.83 15.44,11.57l-31.46 -0.28zm-0.56 9.66c9.91,-0.17 19.9,-0.07 29.82,-0.05 3.69,0.01 11.36,1.46 12.32,-2.52 2.96,-12.35 -16.87,-39.15 -40.98,-22.79 -12.01,8.16 -15.69,28.29 -3.23,40.68 13.42,13.34 36.98,8.42 43.37,-0.61l-4.86 -6.87c-2.84,1.2 -5.15,3.71 -9.33,5.21 -11.29,4.05 -25.16,-1.09 -27.11,-13.07z"/>
   <path class="fil0" d="M441.52 112.39c0.37,-6.3 7.97,-11.67 15.52,-11.54 7.27,0.13 14.81,5.76 15.42,11.54l-30.94 0zm-1 9.4c9.82,-0.26 19.93,-0.08 29.77,-0.06 3.78,0.01 11.37,1.41 12.37,-2.5 3.29,-12.86 -17.64,-38.96 -41.02,-22.77 -19,13.15 -13.23,49.6 18.72,48.85 8.53,-0.2 17.82,-3.59 21.11,-8.6 -0.78,-2.4 -2.42,-5.38 -4.56,-6.93 -4.57,1.9 -9.53,8.38 -22.18,5.84 -7.45,-1.49 -12.75,-6.43 -14.22,-13.83z"/>
   <path class="fil0" d="M324.87 101.4c23.61,-6 31.52,28.59 9.16,34.05 -23.44,5.73 -31.32,-28.42 -9.16,-34.05zm-22.3 22.06c7.76,35.61 60.16,23.78 54.03,-9.66 -6.57,-35.82 -61.48,-24.57 -54.03,9.66z"/>
  </g>
 </g>
</svg>
